<svg xmlns="http://www.w3.org/2000/svg" width="920" height="420" viewBox="0 0 920 420" role="img"><defs><marker id="arrow" markerWidth="8" markerHeight="8" refX="7" refY="4" orient="auto"><path d="M0 0L8 4L0 8Z" fill="#52758d"/></marker></defs><rect width="100%" height="100%" fill="#fff"/><style>text{font-family:Inter,Arial,sans-serif;fill:#202833}.label{font-size:18px;font-weight:600}.small{font-size:14px;fill:#687481}.node{fill:#eef4f8;stroke:#174f78;stroke-width:2}.runtime{fill:#eaf2f7;stroke:#174f78;stroke-width:2}.govern{fill:#f2f3f4;stroke:#687481;stroke-width:2;stroke-dasharray:7 5}.arrow{stroke:#52758d;stroke-width:2;fill:none;marker-end:url(#arrow)}</style>
    <rect class="runtime" x="55" y="52" rx="8" width="190" height="58"/><text class="label" x="150" y="87" text-anchor="middle">Browser / PWA</text>
    <rect class="runtime" x="315" y="52" rx="8" width="220" height="58"/><text class="label" x="425" y="87" text-anchor="middle">Next.js App Router</text>
    <rect class="runtime" x="605" y="28" rx="8" width="250" height="50"/><text class="label" x="730" y="59" text-anchor="middle">Server Components</text>
    <rect class="runtime" x="605" y="95" rx="8" width="250" height="50"/><text class="label" x="730" y="126" text-anchor="middle">API Routes / Actions</text>
    <rect class="runtime" x="605" y="190" rx="8" width="250" height="58"/><text class="label" x="730" y="225" text-anchor="middle">Shared Server Services</text>
    <rect class="runtime" x="315" y="190" rx="8" width="220" height="58"/><text class="label" x="425" y="225" text-anchor="middle">Prisma Client</text>
    <rect class="runtime" x="315" y="315" rx="8" width="220" height="58"/><text class="label" x="425" y="350" text-anchor="middle">Railway MariaDB</text>
    <rect class="runtime" x="605" y="315" rx="8" width="250" height="58"/><text class="label" x="730" y="350" text-anchor="middle">Web Push / Service Worker</text>
    <rect class="govern" x="55" y="315" rx="8" width="190" height="58"/><text class="label" x="150" y="342" text-anchor="middle">Repository</text><text class="small" x="150" y="361" text-anchor="middle">governance, not runtime</text>
    <path class="arrow" d="M245 81H310"/><path class="arrow" d="M535 69H600"/><path class="arrow" d="M535 95H600"/><path class="arrow" d="M730 145V185"/><path class="arrow" d="M605 219H540"/><path class="arrow" d="M425 248V310"/><path class="arrow" d="M730 248V310"/><path class="arrow" d="M605 344H540"/><path class="arrow" stroke-dasharray="7 5" d="M245 344H300V235H310"/>
  </svg>