<svg xmlns="http://www.w3.org/2000/svg" width="940" height="300" viewBox="0 0 940 300" role="img"><defs><marker id="arrow" markerWidth="8" markerHeight="8" refX="7" refY="4" orient="auto"><path d="M0 0L8 4L0 8Z" fill="#52758d"/></marker></defs><rect width="100%" height="100%" fill="#fff"/><style>text{font-family:Inter,Arial,sans-serif;fill:#202833}.label{font-size:18px;font-weight:600}.small{font-size:14px;fill:#687481}.node{fill:#eef4f8;stroke:#174f78;stroke-width:2}.runtime{fill:#eaf2f7;stroke:#174f78;stroke-width:2}.govern{fill:#f2f3f4;stroke:#687481;stroke-width:2;stroke-dasharray:7 5}.arrow{stroke:#52758d;stroke-width:2;fill:none;marker-end:url(#arrow)}</style><rect class="node" x="35" y="45" rx="8" width="145" height="55"/><text class="label" x="107.5" y="79" text-anchor="middle">1. Inspect</text><rect class="node" x="215" y="45" rx="8" width="145" height="55"/><text class="label" x="287.5" y="79" text-anchor="middle">2. Clarify</text><rect class="node" x="395" y="45" rx="8" width="145" height="55"/><text class="label" x="467.5" y="79" text-anchor="middle">3. Scope</text><rect class="node" x="575" y="45" rx="8" width="145" height="55"/><text class="label" x="647.5" y="79" text-anchor="middle">4. Review</text><rect class="node" x="755" y="45" rx="8" width="145" height="55"/><text class="label" x="827.5" y="79" text-anchor="middle">5. Diff</text><rect class="node" x="35" y="165" rx="8" width="145" height="55"/><text class="label" x="107.5" y="199" text-anchor="middle">6. Automate</text><rect class="node" x="215" y="165" rx="8" width="145" height="55"/><text class="label" x="287.5" y="199" text-anchor="middle">7. Manual</text><rect class="node" x="395" y="165" rx="8" width="145" height="55"/><text class="label" x="467.5" y="199" text-anchor="middle">8. Risk</text><rect class="node" x="575" y="165" rx="8" width="145" height="55"/><text class="label" x="647.5" y="199" text-anchor="middle">9. Docs</text><rect class="node" x="755" y="165" rx="8" width="145" height="55"/><text class="label" x="827.5" y="199" text-anchor="middle">10. Commit</text><path class="arrow" d="M180 72H210M360 72H390M540 72H570M720 72H750M822 100V132H108V165H210M360 192H390M540 192H570M720 192H750"/><path class="arrow" stroke-dasharray="7 5" d="M822 220V270H108V105"/></svg>