<svg xmlns="http://www.w3.org/2000/svg" width="960" height="470" viewBox="0 0 960 470" role="img"><defs><marker id="arrow" markerWidth="8" markerHeight="8" refX="7" refY="4" orient="auto"><path d="M0 0L8 4L0 8Z" fill="#52758d"/></marker></defs><rect width="100%" height="100%" fill="#fff"/><style>text{font-family:Inter,Arial,sans-serif;fill:#202833}.label{font-size:18px;font-weight:600}.small{font-size:14px;fill:#687481}.node{fill:#eef4f8;stroke:#174f78;stroke-width:2}.runtime{fill:#eaf2f7;stroke:#174f78;stroke-width:2}.govern{fill:#f2f3f4;stroke:#687481;stroke-width:2;stroke-dasharray:7 5}.arrow{stroke:#52758d;stroke-width:2;fill:none;marker-end:url(#arrow)}</style><rect class="node" x="255" y="25" rx="8" width="450" height="46"/><text class="label" x="480" y="54" text-anchor="middle">README</text><path class="arrow" d="M480 71V88"/><rect class="node" x="255" y="91" rx="8" width="450" height="46"/><text class="label" x="480" y="120" text-anchor="middle">Architecture</text><path class="arrow" d="M480 137V154"/><rect class="node" x="255" y="157" rx="8" width="450" height="46"/><text class="label" x="480" y="186" text-anchor="middle">Security · Testing · Subsystems</text><path class="arrow" d="M480 203V220"/><rect class="node" x="255" y="223" rx="8" width="450" height="46"/><text class="label" x="480" y="252" text-anchor="middle">ADRs</text><path class="arrow" d="M480 269V286"/><rect class="node" x="255" y="289" rx="8" width="450" height="46"/><text class="label" x="480" y="318" text-anchor="middle">Project Playbook</text><path class="arrow" d="M480 335V352"/><rect class="node" x="255" y="355" rx="8" width="450" height="46"/><text class="label" x="480" y="384" text-anchor="middle">Engineering Playbook snapshot</text><text class="small" x="480" y="445" text-anchor="middle">Reading progression — repository implementation remains authoritative</text></svg>