<svg xmlns="http://www.w3.org/2000/svg" width="980" height="220" viewBox="0 0 980 220" role="img"><defs><marker id="arrow" markerWidth="8" markerHeight="8" refX="7" refY="4" orient="auto"><path d="M0 0L8 4L0 8Z" fill="#52758d"/></marker></defs><rect width="100%" height="100%" fill="#fff"/><style>text{font-family:Inter,Arial,sans-serif;fill:#202833}.label{font-size:18px;font-weight:600}.small{font-size:14px;fill:#687481}.node{fill:#eef4f8;stroke:#174f78;stroke-width:2}.runtime{fill:#eaf2f7;stroke:#174f78;stroke-width:2}.govern{fill:#f2f3f4;stroke:#687481;stroke-width:2;stroke-dasharray:7 5}.arrow{stroke:#52758d;stroke-width:2;fill:none;marker-end:url(#arrow)}</style><rect class="node" x="40" y="75" rx="8" width="118.28571428571429" height="70"/><text class="label" x="99.14285714285714" y="116" text-anchor="middle">Intent</text><path class="arrow" d="M158.28571428571428 110H167.28571428571428"/><rect class="node" x="170.28571428571428" y="75" rx="8" width="118.28571428571429" height="70"/><text class="label" x="229.42857142857142" y="116" text-anchor="middle">Schema</text><path class="arrow" d="M288.57142857142856 110H297.57142857142856"/><rect class="node" x="300.57142857142856" y="75" rx="8" width="118.28571428571429" height="70"/><text class="label" x="359.7142857142857" y="116" text-anchor="middle">Migration</text><path class="arrow" d="M418.85714285714283 110H427.85714285714283"/><rect class="node" x="430.85714285714283" y="75" rx="8" width="118.28571428571429" height="70"/><text class="label" x="490" y="116" text-anchor="middle">Review</text><path class="arrow" d="M549.1428571428571 110H558.1428571428571"/><rect class="node" x="561.1428571428571" y="75" rx="8" width="118.28571428571429" height="70"/><text class="label" x="620.2857142857142" y="116" text-anchor="middle">Safe test</text><path class="arrow" d="M679.4285714285714 110H688.4285714285714"/><rect class="node" x="691.4285714285713" y="75" rx="8" width="118.28571428571429" height="70"/><text class="label" x="750.5714285714284" y="116" text-anchor="middle">Deploy</text><path class="arrow" d="M809.7142857142857 110H818.7142857142857"/><rect class="node" x="821.7142857142857" y="75" rx="8" width="118.28571428571429" height="70"/><text class="label" x="880.8571428571428" y="116" text-anchor="middle">Verify</text></svg>