<svg xmlns="http://www.w3.org/2000/svg" width="980" height="220" viewBox="0 0 980 220" role="img"><defs><marker id="arrow" markerWidth="8" markerHeight="8" refX="7" refY="4" orient="auto"><path d="M0 0L8 4L0 8Z" fill="#52758d"/></marker></defs><rect width="100%" height="100%" fill="#fff"/><style>text{font-family:Inter,Arial,sans-serif;fill:#202833}.label{font-size:18px;font-weight:600}.small{font-size:14px;fill:#687481}.node{fill:#eef4f8;stroke:#174f78;stroke-width:2}.runtime{fill:#eaf2f7;stroke:#174f78;stroke-width:2}.govern{fill:#f2f3f4;stroke:#687481;stroke-width:2;stroke-dasharray:7 5}.arrow{stroke:#52758d;stroke-width:2;fill:none;marker-end:url(#arrow)}</style><rect class="node" x="40" y="75" rx="8" width="140" height="70"/><text class="label" x="110" y="116" text-anchor="middle">Logic</text><path class="arrow" d="M180 110H189"/><rect class="node" x="192" y="75" rx="8" width="140" height="70"/><text class="label" x="262" y="116" text-anchor="middle">Service</text><path class="arrow" d="M332 110H341"/><rect class="node" x="344" y="75" rx="8" width="140" height="70"/><text class="label" x="414" y="116" text-anchor="middle">Route</text><path class="arrow" d="M484 110H493"/><rect class="node" x="496" y="75" rx="8" width="140" height="70"/><text class="label" x="566" y="116" text-anchor="middle">Manual workflow</text><path class="arrow" d="M636 110H645"/><rect class="node" x="648" y="75" rx="8" width="140" height="70"/><text class="label" x="718" y="116" text-anchor="middle">Real device</text><path class="arrow" d="M788 110H797"/><rect class="node" x="800" y="75" rx="8" width="140" height="70"/><text class="label" x="870" y="116" text-anchor="middle">Deployment smoke</text></svg>